<svg width="25" height="26" viewBox="0 0 25 26" fill="none" xmlns="http://www.w3.org/2000/svg">
  <path d="M24.7559 10.7273H23.75V10.6754H12.5V15.6754H19.6205C18.5818 18.6084 15.7909 20.6754 12.5 20.6754C8.35795 20.6754 5 17.3174 5 13.1754C5 9.03331 8.35795 5.67535 12.5 5.67535C14.4114 5.67535 16.1511 6.39694 17.4744 7.57535L21.0098 4.03991C18.7773 1.95909 15.7909 0.675354 12.5 0.675354C5.59659 0.675354 0 6.27194 0 13.1754C0 20.0788 5.59659 25.6754 12.5 25.6754C19.4034 25.6754 25 20.0788 25 13.1754C25 12.3379 24.9136 11.5208 24.7559 10.7273Z" fill="#FFC107"></path>
  <path d="M1.44141 7.35717L5.54823 10.3697C6.65959 7.61899 9.35114 5.67535 12.5 5.67535C14.4114 5.67535 16.1511 6.39694 17.4744 7.57535L21.0098 4.0399C18.7773 1.95908 15.7909 0.675354 12.5 0.675354C7.70682 0.675354 3.54545 3.38217 1.44141 7.35717Z" fill="#FF3D00"></path>
  <path d="M12.5 25.6754C15.7273 25.6754 18.6614 24.4386 20.8795 22.4276L17.0102 19.1549C15.7114 20.1435 14.1239 20.6754 12.5 20.6754C9.22273 20.6754 6.44091 18.6254 5.39205 15.7102L1.31591 18.8492C3.39545 22.9004 7.59659 25.6754 12.5 25.6754Z" fill="#4CAF50"></path>
  <path d="M24.7559 10.7273H23.75V10.6754H12.5V15.6754H19.6205C19.1227 17.0804 18.2205 18.2935 17.008 19.1554L17.0102 19.1538L20.8795 22.4265C20.6068 22.6742 25 19.4254 25 13.1754C25 12.3379 24.9136 11.5208 24.7559 10.7273Z" fill="#1976D2"></path>
</svg>